<svg xmlns="http://www.w3.org/2000/svg" width="40" height="40" viewBox="0 0 40 40">
  <g id="Group_2" data-name="Group 2" transform="translate(-12.811 -16.325)">
    <rect id="Rectangle_1" data-name="Rectangle 1" width="40" height="40" rx="5" transform="translate(12.811 16.325)" fill="#ff7e79"/>
    <g id="Group_1" data-name="Group 1" transform="translate(18.619 26.258)">
      <path id="Path_1" data-name="Path 1" d="M6.334-41.073H2.662a6.319,6.319,0,0,0,.3,3,5.924,5.924,0,0,0,1.779,2.082,7.591,7.591,0,0,0,2.583,1.2,11.89,11.89,0,0,0,3.018.382,11.588,11.588,0,0,0,3.387-.448A7.162,7.162,0,0,0,16.179-36.1a5.211,5.211,0,0,0,1.489-1.911,5.751,5.751,0,0,0,.5-2.4,4.614,4.614,0,0,0-.672-2.6A5.614,5.614,0,0,0,15.9-44.631a7.01,7.01,0,0,0-1.858-.883q-.936-.277-1.463-.382-1.766-.448-2.86-.738a10.608,10.608,0,0,1-1.713-.58,1.882,1.882,0,0,1-.83-.633,1.691,1.691,0,0,1-.211-.9,1.769,1.769,0,0,1,.264-1A2.289,2.289,0,0,1,7.9-50.4a2.679,2.679,0,0,1,.909-.369,4.85,4.85,0,0,1,1-.105,7.058,7.058,0,0,1,1.41.132,3.4,3.4,0,0,1,1.147.448,2.329,2.329,0,0,1,.8.87,3.327,3.327,0,0,1,.356,1.4h4.006a5.78,5.78,0,0,0-.619-2.781A5.4,5.4,0,0,0,15.243-52.7a7.067,7.067,0,0,0-2.412-1.068A11.973,11.973,0,0,0,10-54.094a9.643,9.643,0,0,0-2.53.343A7.064,7.064,0,0,0,5.2-52.7,5.612,5.612,0,0,0,3.58-50.918,4.928,4.928,0,0,0,2.96-48.4a4.6,4.6,0,0,0,.488,2.2,4.655,4.655,0,0,0,1.278,1.516,7.064,7.064,0,0,0,1.792.988,18.021,18.021,0,0,0,2.056.646q1.028.29,2.03.527a12.759,12.759,0,0,1,1.792.554,3.867,3.867,0,0,1,1.278.791,1.651,1.651,0,0,1,.488,1.239,1.819,1.819,0,0,1-.369,1.173,2.588,2.588,0,0,1-.923.725,4.127,4.127,0,0,1-1.186.356,8.244,8.244,0,0,1-1.186.092,6.291,6.291,0,0,1-1.581-.2A3.937,3.937,0,0,1,7.586-38.4a2.994,2.994,0,0,1-.909-1.068A3.452,3.452,0,0,1,6.334-41.073Z" transform="translate(10.482 54.806)" fill="#ffd6d5"/>
      <path id="Path_2" data-name="Path 2" d="M16.292-47.32h4.044a7.725,7.725,0,0,0-1.05-2.9,7.051,7.051,0,0,0-1.806-2.122A7.956,7.956,0,0,0,15-53.646a9.482,9.482,0,0,0-2.939-.448,9.506,9.506,0,0,0-3.888.764,8.316,8.316,0,0,0-2.913,2.109,9.4,9.4,0,0,0-1.819,3.15,11.759,11.759,0,0,0-.633,3.914,11.366,11.366,0,0,0,.633,3.835,9.159,9.159,0,0,0,1.819,3.1,8.331,8.331,0,0,0,2.913,2.069,9.65,9.65,0,0,0,3.888.751,9.271,9.271,0,0,0,3.189-.527,7.4,7.4,0,0,0,2.53-1.529,7.333,7.333,0,0,0,1.74-2.425,5.592,5.592,0,0,0,.147-1.492H15.953a5.18,5.18,0,0,1-.925,1.36,4.519,4.519,0,0,1-2.965,1.16,4.831,4.831,0,0,1-2.372-.54A4.526,4.526,0,0,1,8.11-39.834a6.233,6.233,0,0,1-.883-2.016,9.58,9.58,0,0,1-.277-2.306,10.3,10.3,0,0,1,.277-2.4,6.352,6.352,0,0,1,.883-2.069,4.479,4.479,0,0,1,1.581-1.45,4.831,4.831,0,0,1,2.372-.54,4.3,4.3,0,0,1,1.463.25,4.255,4.255,0,0,1,1.252.7,4.16,4.16,0,0,1,.923,1.041A3.584,3.584,0,0,1,16.292-47.32Z" transform="translate(-2.812 54.094)" fill="#fff"/>
    </g>
  </g>
</svg>
